<svg width="24" height="24" viewBox="0 0 24 24" fill="none" xmlns="http://www.w3.org/2000/svg">
<rect width="24" height="24" rx="12" fill="#1D1C1D" fill-opacity="0.06"/>
<path fill-rule="evenodd" clip-rule="evenodd" d="M12.5625 6.9375C12.5625 6.78832 12.5032 6.64524 12.3977 6.53975C12.2923 6.43426 12.1492 6.375 12 6.375C11.8508 6.375 11.7077 6.43426 11.6023 6.53975C11.4968 6.64524 11.4375 6.78832 11.4375 6.9375V11.4375H6.93825C6.78907 11.4375 6.64524 11.4968 6.53975 11.6023C6.43426 11.7077 6.375 11.8508 6.375 12C6.375 12.1492 6.43426 12.2923 6.53975 12.3977C6.64524 12.5032 6.78832 12.5625 6.9375 12.5625H11.4375V17.0625C11.4375 17.2117 11.4968 17.3548 11.6023 17.4602C11.7077 17.5657 11.8508 17.625 12 17.625C12.1492 17.625 12.2923 17.5657 12.3977 17.4602C12.5032 17.3548 12.5625 17.2117 12.5625 17.0625V12.5625H17.0625C17.2117 12.5625 17.3548 12.5032 17.4602 12.3977C17.5657 12.2923 17.625 12.1492 17.625 12C17.625 11.8508 17.5657 11.7077 17.4602 11.6023C17.3548 11.4968 17.2117 11.4375 17.0625 11.4375H12.5625V6.9375Z" fill="#1D1C1D" fill-opacity="0.7"/>
</svg>
