<svg width="20" height="20" viewBox="0 0 20 20" fill="none" xmlns="http://www.w3.org/2000/svg">
<path d="M10.8334 13.6978C10.8334 14.6395 10.8334 15.1103 11.0236 15.3412C11.1888 15.5417 11.4382 15.6537 11.6979 15.644C11.9968 15.6328 12.3487 15.32 13.0525 14.6943L17.2122 10.9968C17.6 10.6521 17.7939 10.4798 17.8653 10.2763C17.928 10.0976 17.928 9.90289 17.8653 9.72419C17.7939 9.5207 17.6 9.34837 17.2122 9.00371L13.0525 5.30617C12.3487 4.68054 11.9968 4.36773 11.6979 4.35654C11.4382 4.34682 11.1888 4.4588 11.0236 4.65934C10.8334 4.89018 10.8334 5.36102 10.8334 6.30271V13.6978Z" stroke="#1D1C1D" stroke-opacity="0.7" stroke-width="1.66667" stroke-linecap="round" stroke-linejoin="round"/>
<path d="M1.66669 13.6978C1.66669 14.6395 1.66669 15.1103 1.85691 15.3412C2.02216 15.5417 2.27151 15.6537 2.53119 15.644C2.8301 15.6328 3.18201 15.32 3.88584 14.6943L8.04557 10.9968C8.43331 10.6521 8.62718 10.4798 8.69863 10.2763C8.76137 10.0976 8.76137 9.90289 8.69863 9.72419C8.62718 9.5207 8.43331 9.34837 8.04557 9.00371L3.88584 5.30617C3.18201 4.68054 2.8301 4.36773 2.53119 4.35654C2.27151 4.34682 2.02216 4.4588 1.85691 4.65934C1.66669 4.89018 1.66669 5.36102 1.66669 6.30271V13.6978Z" stroke="#1D1C1D" stroke-opacity="0.7" stroke-width="1.66667" stroke-linecap="round" stroke-linejoin="round"/>
</svg>
