<svg width="28" height="28" viewBox="0 0 28 28" fill="none" xmlns="http://www.w3.org/2000/svg">
<g clip-path="url(#clip0_108_7396)">
<path fill-rule="evenodd" clip-rule="evenodd" d="M7.25002 13.9999C7.25002 12.2097 7.96118 10.4928 9.22705 9.22693C10.4929 7.96106 12.2098 7.2499 14 7.2499C15.7902 7.2499 17.5071 7.96106 18.773 9.22693C20.0389 10.4928 20.75 12.2097 20.75 13.9999C20.75 15.7901 20.0389 17.507 18.773 18.7729C17.5071 20.0387 15.7902 20.7499 14 20.7499C12.2098 20.7499 10.4929 20.0387 9.22705 18.7729C7.96118 17.507 7.25002 15.7901 7.25002 13.9999ZM14 5.8999C11.8518 5.8999 9.7915 6.75329 8.27246 8.27234C6.75341 9.79138 5.90002 11.8516 5.90002 13.9999C5.90002 16.1482 6.75341 18.2084 8.27246 19.7275C9.7915 21.2465 11.8518 22.0999 14 22.0999C16.1483 22.0999 18.2085 21.2465 19.7276 19.7275C21.2466 18.2084 22.1 16.1482 22.1 13.9999C22.1 11.8516 21.2466 9.79138 19.7276 8.27234C18.2085 6.75329 16.1483 5.8999 14 5.8999ZM11.75 13.5499C12.1081 13.5499 12.4514 13.4077 12.7046 13.1545C12.9578 12.9013 13.1 12.5579 13.1 12.1999C13.1 11.8419 12.9578 11.4985 12.7046 11.2453C12.4514 10.9921 12.1081 10.8499 11.75 10.8499C11.392 10.8499 11.0486 10.9921 10.7954 11.2453C10.5423 11.4985 10.4 11.8419 10.4 12.1999C10.4 12.5579 10.5423 12.9013 10.7954 13.1545C11.0486 13.4077 11.392 13.5499 11.75 13.5499ZM17.6 12.1999C17.6 12.3772 17.5651 12.5527 17.4973 12.7165C17.4294 12.8803 17.33 13.0291 17.2046 13.1545C17.0793 13.2799 16.9304 13.3793 16.7666 13.4471C16.6029 13.515 16.4273 13.5499 16.25 13.5499C16.0727 13.5499 15.8972 13.515 15.7334 13.4471C15.5696 13.3793 15.4208 13.2799 15.2954 13.1545C15.1701 13.0291 15.0706 12.8803 15.0028 12.7165C14.9349 12.5527 14.9 12.3772 14.9 12.1999C14.9 11.8419 15.0423 11.4985 15.2954 11.2453C15.5486 10.9921 15.892 10.8499 16.25 10.8499C16.6081 10.8499 16.9514 10.9921 17.2046 11.2453C17.4578 11.4985 17.6 11.8419 17.6 12.1999ZM11.8535 15.5893C11.8267 15.5041 11.7832 15.425 11.7256 15.3567C11.668 15.2884 11.5974 15.2322 11.5179 15.1914C11.4385 15.1506 11.3517 15.126 11.2626 15.119C11.1735 15.112 11.0839 15.1227 10.999 15.1506C10.9141 15.1785 10.8356 15.2229 10.768 15.2814C10.7005 15.3398 10.6452 15.4111 10.6054 15.4911C10.5655 15.5711 10.542 15.6582 10.5361 15.7474C10.5302 15.8365 10.5421 15.926 10.571 16.0105C11.1164 17.6719 12.5852 18.4999 14.0243 18.4999C15.4634 18.4999 16.9313 17.6719 17.4785 16.0105C17.5075 15.926 17.5193 15.8365 17.5134 15.7474C17.5075 15.6582 17.484 15.5711 17.4442 15.4911C17.4044 15.4111 17.3491 15.3398 17.2815 15.2814C17.2139 15.2229 17.1354 15.1785 17.0505 15.1506C16.9656 15.1227 16.876 15.112 16.787 15.119C16.6979 15.126 16.6111 15.1506 16.5316 15.1914C16.4521 15.2322 16.3815 15.2884 16.3239 15.3567C16.2663 15.425 16.2228 15.5041 16.196 15.5893C15.854 16.6288 14.954 17.1499 14.0243 17.1499C13.0946 17.1499 12.1955 16.6279 11.8535 15.5893Z" fill="#1D1C1D" fill-opacity="0.7"/>
</g>
<defs>
<clipPath id="clip0_108_7396">
<rect width="18" height="18" fill="white" transform="translate(5 5)"/>
</clipPath>
</defs>
</svg>
