<svg width="28" height="28" viewBox="0 0 28 28" fill="none" xmlns="http://www.w3.org/2000/svg">
<path fill-rule="evenodd" clip-rule="evenodd" d="M9.04998 7.7001H18.95C19.308 7.7001 19.6514 7.84233 19.9046 8.0955C20.1577 8.34868 20.3 8.69206 20.3 9.0501V18.9501C20.3 19.3081 20.1577 19.6515 19.9046 19.9047C19.6514 20.1579 19.308 20.3001 18.95 20.3001H9.04998C8.69193 20.3001 8.34856 20.1579 8.09538 19.9047C7.84221 19.6515 7.69998 19.3081 7.69998 18.9501V9.0501C7.69998 8.69206 7.84221 8.34868 8.09538 8.0955C8.34856 7.84233 8.69193 7.7001 9.04998 7.7001ZM6.34998 9.0501C6.34998 8.33401 6.63444 7.64726 7.14079 7.14091C7.64714 6.63456 8.33389 6.3501 9.04998 6.3501H18.95C19.6661 6.3501 20.3528 6.63456 20.8592 7.14091C21.3655 7.64726 21.65 8.33401 21.65 9.0501V18.9501C21.65 19.6662 21.3655 20.3529 20.8592 20.8593C20.3528 21.3656 19.6661 21.6501 18.95 21.6501H9.04998C8.33389 21.6501 7.64714 21.3656 7.14079 20.8593C6.63444 20.3529 6.34998 19.6662 6.34998 18.9501V9.0501ZM16.826 10.302C16.9181 10.1493 16.946 9.96631 16.9036 9.79307C16.8612 9.61984 16.752 9.47041 16.5998 9.37744C16.4476 9.28446 16.2648 9.25549 16.0914 9.29685C15.9179 9.33822 15.7678 9.44655 15.674 9.5982L10.724 17.6982C10.6319 17.8509 10.604 18.0339 10.6463 18.2071C10.6887 18.3804 10.7979 18.5298 10.9501 18.6228C11.1023 18.7157 11.2851 18.7447 11.4586 18.7033C11.6321 18.662 11.7821 18.5536 11.876 18.402L16.826 10.302Z" fill="#1D1C1D" fill-opacity="0.7"/>
</svg>
