<svg width="20" height="20" viewBox="0 0 20 20" fill="none" xmlns="http://www.w3.org/2000/svg">
<path d="M5.75002 9.53687V11.8517M5.75002 9.53687V3.98132C5.75002 3.21426 6.38428 2.59243 7.16669 2.59243C7.94909 2.59243 8.58335 3.21426 8.58335 3.98132M5.75002 9.53687C5.75002 8.76981 5.11576 8.14799 4.33335 8.14799C3.55095 8.14799 2.91669 8.76981 2.91669 9.53687V11.3887C2.91669 15.224 6.088 18.3332 10 18.3332C13.912 18.3332 17.0834 15.224 17.0834 11.3887V6.7591C17.0834 5.99203 16.4491 5.37021 15.6667 5.37021C14.8843 5.37021 14.25 5.99203 14.25 6.7591M8.58335 3.98132V9.07391M8.58335 3.98132V3.05539C8.58335 2.28833 9.21762 1.6665 10 1.6665C10.7824 1.6665 11.4167 2.28833 11.4167 3.05539V3.98132M11.4167 3.98132V9.07391M11.4167 3.98132C11.4167 3.21426 12.051 2.59243 12.8334 2.59243C13.6158 2.59243 14.25 3.21426 14.25 3.98132V6.7591M14.25 6.7591V9.07391" stroke="#1D1C1D" stroke-opacity="0.7" stroke-width="1.66667" stroke-linecap="round" stroke-linejoin="round"/>
</svg>
