<svg width="28" height="28" viewBox="0 0 28 28" fill="none" xmlns="http://www.w3.org/2000/svg">
<g clip-path="url(#clip0_108_7398)">
<path fill-rule="evenodd" clip-rule="evenodd" d="M7.25004 13.9998C7.25004 12.2096 7.96119 10.4927 9.22706 9.22683C10.4929 7.96096 12.2098 7.2498 14 7.2498C15.7902 7.2498 17.5071 7.96096 18.773 9.22683C20.0389 10.4927 20.75 12.2096 20.75 13.9998V14.5803C20.75 15.5019 20.003 16.2498 19.0805 16.2498C18.8072 16.2498 18.5451 16.1412 18.3519 15.948C18.1586 15.7547 18.05 15.4926 18.05 15.2193V11.0748C18.0508 10.9029 17.986 10.7372 17.8688 10.6115C17.7515 10.4857 17.5908 10.4095 17.4192 10.3982C17.2477 10.387 17.0783 10.4416 16.9457 10.5509C16.813 10.6603 16.7271 10.8161 16.7054 10.9866C16.104 10.4466 15.3548 10.099 14.5542 9.98833C13.7536 9.87769 12.9381 10.0091 12.2128 10.3657C11.4875 10.7223 10.8855 11.2878 10.4842 11.9894C10.0829 12.6909 9.90072 13.4965 9.96105 14.3025C10.0214 15.1085 10.3215 15.878 10.8228 16.512C11.324 17.146 12.0035 17.6156 12.7738 17.8602C13.5442 18.1049 14.3701 18.1134 15.1453 17.8848C15.9205 17.6562 16.6096 17.2009 17.1239 16.5774C17.3432 16.8934 17.6358 17.1516 17.9768 17.3296C18.3177 17.5077 18.6968 17.6004 19.0814 17.5998C19.8821 17.5996 20.6499 17.2813 21.216 16.7151C21.782 16.1489 22.1 15.381 22.1 14.5803V13.9998C22.0999 12.1854 21.4906 10.4236 20.3698 8.99675C19.2489 7.56993 17.6815 6.56073 15.9188 6.13093C14.156 5.70113 12.3 5.87563 10.6482 6.62644C8.99643 7.37725 7.64457 8.6609 6.80933 10.2716C5.97408 11.8824 5.70382 13.7269 6.04186 15.5095C6.3799 17.2921 7.30667 18.9097 8.67361 20.1028C10.0405 21.2959 11.7685 21.9955 13.5805 22.0895C15.3924 22.1835 17.1835 21.6664 18.6665 20.6211C18.7411 20.5709 18.805 20.5063 18.8543 20.4311C18.9036 20.3559 18.9374 20.2716 18.9536 20.1831C18.9699 20.0947 18.9683 20.0039 18.949 19.9161C18.9297 19.8282 18.893 19.7452 18.8411 19.6717C18.7893 19.5982 18.7232 19.5359 18.6469 19.4883C18.5706 19.4407 18.4856 19.4089 18.3968 19.3946C18.308 19.3803 18.2173 19.384 18.1299 19.4052C18.0425 19.4265 17.9603 19.4651 17.888 19.5186C16.8772 20.2309 15.69 20.6518 14.4562 20.7354C13.2224 20.819 11.9894 20.562 10.8917 19.9925C9.79394 19.423 8.87377 18.563 8.23158 17.5062C7.58938 16.4494 7.24985 15.2364 7.25004 13.9998ZM14 16.6998C14.7161 16.6998 15.4029 16.4153 15.9092 15.909C16.4156 15.4026 16.7 14.7159 16.7 13.9998C16.7 13.2837 16.4156 12.597 15.9092 12.0906C15.4029 11.5843 14.7161 11.2998 14 11.2998C13.284 11.2998 12.5972 11.5843 12.0908 12.0906C11.5845 12.597 11.3 13.2837 11.3 13.9998C11.3 14.7159 11.5845 15.4026 12.0908 15.909C12.5972 16.4153 13.284 16.6998 14 16.6998Z" fill="#1D1C1D" fill-opacity="0.7"/>
</g>
<defs>
<clipPath id="clip0_108_7398">
<rect width="18" height="18" fill="white" transform="translate(5 5)"/>
</clipPath>
</defs>
</svg>
