<svg width="61" height="36" viewBox="0 0 61 36" fill="none" xmlns="http://www.w3.org/2000/svg">
<path d="M4 8C4 5.79086 5.79086 4 8 4H36V32H8C5.79086 32 4 30.2091 4 28V8Z" fill="#007A5A"/>
<path d="M13.2 11.7999C13.2005 11.704 13.2239 11.6097 13.2681 11.5246C13.3123 11.4395 13.3761 11.3662 13.4543 11.3107C13.5325 11.2552 13.6228 11.2191 13.7176 11.2054C13.8125 11.1917 13.9093 11.2008 14 11.2319L26.4768 17.4775C26.5738 17.526 26.6554 17.6006 26.7125 17.6928C26.7695 17.7851 26.7997 17.8914 26.7997 17.9999C26.7997 18.1084 26.7695 18.2147 26.7125 18.307C26.6554 18.3993 26.5738 18.4738 26.4768 18.5223L14 24.7679L13.9392 24.7823C13.8511 24.8035 13.7594 24.8044 13.6709 24.785C13.5824 24.7656 13.4995 24.7264 13.4284 24.6704C13.3572 24.6143 13.2997 24.5428 13.2602 24.4614C13.2206 24.3799 13.2 24.2905 13.2 24.1999V20.5679C13.2 19.5999 13.976 18.7847 14.968 18.7679L20.2 18.6319C20.416 18.6239 20.8 18.4399 20.8 17.9999C20.8 17.5599 20.4 17.3679 20.2 17.3679L14.968 17.2319C14.4962 17.2229 14.0468 17.0293 13.7162 16.6926C13.3857 16.3559 13.2003 15.903 13.2 15.4311V11.7999Z" fill="white"/>
<path d="M36 4H55C57.2091 4 59 5.79086 59 8V28C59 30.2091 57.2091 32 55 32H36V4Z" fill="#007A5A"/>
<path fill-rule="evenodd" clip-rule="evenodd" d="M44.29 16.1024C44.3955 15.997 44.5384 15.9379 44.6875 15.9379C44.8366 15.9379 44.9795 15.997 45.085 16.1024L47.5 18.5174L49.915 16.1024C49.9665 16.0471 50.0286 16.0028 50.0976 15.972C50.1666 15.9413 50.2411 15.9248 50.3166 15.9234C50.3921 15.9221 50.4672 15.936 50.5372 15.9643C50.6072 15.9926 50.6709 16.0347 50.7243 16.0881C50.7777 16.1415 50.8198 16.2051 50.8481 16.2752C50.8764 16.3452 50.8903 16.4202 50.8889 16.4958C50.8876 16.5713 50.8711 16.6458 50.8403 16.7148C50.8096 16.7838 50.7653 16.8459 50.71 16.8974L47.8975 19.7099C47.792 19.8152 47.6491 19.8744 47.5 19.8744C47.3509 19.8744 47.208 19.8152 47.1025 19.7099L44.29 16.8974C44.1847 16.7919 44.1255 16.6489 44.1255 16.4999C44.1255 16.3508 44.1847 16.2078 44.29 16.1024Z" fill="white"/>
<rect width="1" height="20" transform="matrix(-1 0 0 1 36.5 8)" fill="white" fill-opacity="0.5"/>
</svg>
