<svg width="61" height="36" viewBox="0 0 61 36" fill="none" xmlns="http://www.w3.org/2000/svg">
<path fill-rule="evenodd" clip-rule="evenodd" d="M22 10.7998C21.1646 10.7998 20.3633 11.1317 19.7726 11.7224C19.1819 12.3132 18.85 13.1144 18.85 13.9498V16.6498C18.85 17.0635 18.9315 17.4731 19.0898 17.8553C19.2481 18.2374 19.4801 18.5847 19.7726 18.8772C20.0651 19.1697 20.4124 19.4017 20.7945 19.56C21.1767 19.7183 21.5863 19.7998 22 19.7998C22.4137 19.7998 22.8233 19.7183 23.2054 19.56C23.5876 19.4017 23.9349 19.1697 24.2274 18.8772C24.5199 18.5847 24.7519 18.2374 24.9102 17.8553C25.0685 17.4731 25.15 17.0635 25.15 16.6498V13.9498C25.15 13.1144 24.8181 12.3132 24.2274 11.7224C23.6366 11.1317 22.8354 10.7998 22 10.7998ZM20.2 13.9498C20.2 13.4724 20.3896 13.0146 20.7272 12.677C21.0648 12.3394 21.5226 12.1498 22 12.1498C22.4774 12.1498 22.9352 12.3394 23.2728 12.677C23.6104 13.0146 23.8 13.4724 23.8 13.9498V16.6498C23.8 17.1272 23.6104 17.585 23.2728 17.9226C22.9352 18.2602 22.4774 18.4498 22 18.4498C21.5226 18.4498 21.0648 18.2602 20.7272 17.9226C20.3896 17.585 20.2 17.1272 20.2 16.6498V13.9498ZM17.5 16.4248C17.5 16.2458 17.4289 16.0741 17.3023 15.9475C17.1757 15.8209 17.004 15.7498 16.825 15.7498C16.646 15.7498 16.4743 15.8209 16.3477 15.9475C16.2211 16.0741 16.15 16.2458 16.15 16.4248V16.6498C16.1501 18.0844 16.6773 19.469 17.6314 20.5404C18.5855 21.6119 19.9 22.2954 21.325 22.4611V23.8498H19.975C19.796 23.8498 19.6243 23.9209 19.4977 24.0475C19.3711 24.1741 19.3 24.3458 19.3 24.5248C19.3 24.7038 19.3711 24.8755 19.4977 25.0021C19.6243 25.1287 19.796 25.1998 19.975 25.1998H24.025C24.204 25.1998 24.3757 25.1287 24.5023 25.0021C24.6289 24.8755 24.7 24.7038 24.7 24.5248C24.7 24.3458 24.6289 24.1741 24.5023 24.0475C24.3757 23.9209 24.204 23.8498 24.025 23.8498H22.675V22.4611C24.1 22.2954 25.4145 21.6119 26.3686 20.5404C27.3227 19.469 27.8499 18.0844 27.85 16.6498V16.4248C27.85 16.2458 27.7789 16.0741 27.6523 15.9475C27.5257 15.8209 27.354 15.7498 27.175 15.7498C26.996 15.7498 26.8243 15.8209 26.6977 15.9475C26.5711 16.0741 26.5 16.2458 26.5 16.4248V16.6498C26.5 17.8433 26.0259 18.9879 25.182 19.8318C24.3381 20.6757 23.1935 21.1498 22 21.1498C20.8065 21.1498 19.6619 20.6757 18.818 19.8318C17.9741 18.9879 17.5 17.8433 17.5 16.6498V16.4248Z" fill="#1D1C1D" fill-opacity="0.7"/>
<path fill-rule="evenodd" clip-rule="evenodd" d="M44.2899 16.1024C44.3953 15.997 44.5383 15.9379 44.6874 15.9379C44.8364 15.9379 44.9794 15.997 45.0849 16.1024L47.4999 18.5174L49.9149 16.1024C49.9664 16.0471 50.0285 16.0028 50.0975 15.972C50.1665 15.9413 50.241 15.9248 50.3165 15.9234C50.392 15.9221 50.467 15.936 50.5371 15.9643C50.6071 15.9926 50.6707 16.0347 50.7241 16.0881C50.7776 16.1415 50.8197 16.2051 50.848 16.2752C50.8763 16.3452 50.8901 16.4202 50.8888 16.4958C50.8875 16.5713 50.871 16.6458 50.8402 16.7148C50.8095 16.7838 50.7651 16.8459 50.7099 16.8974L47.8974 19.7099C47.7919 19.8152 47.6489 19.8744 47.4999 19.8744C47.3508 19.8744 47.2078 19.8152 47.1024 19.7099L44.2899 16.8974C44.1845 16.7919 44.1254 16.6489 44.1254 16.4999C44.1254 16.3508 44.1845 16.2078 44.2899 16.1024Z" fill="#1D1C1D" fill-opacity="0.7"/>
<rect width="1" height="20" transform="matrix(-1 0 0 1 36.5 8)" fill="#1D1C1D" fill-opacity="0.06"/>
</svg>
