<svg width="64" height="36" viewBox="0 0 64 36" fill="none" xmlns="http://www.w3.org/2000/svg">
<rect y="4" width="62" height="28" rx="4" fill="#6E12A3"/>
<path d="M15.5834 12.7498L16.595 15.38C16.7595 15.8077 16.8417 16.0216 16.9696 16.2015C17.083 16.3609 17.2223 16.5002 17.3817 16.6136C17.5616 16.7415 17.7755 16.8237 18.2032 16.9882L20.8334 17.9998L18.2032 19.0114C17.7755 19.1759 17.5616 19.2582 17.3817 19.3861C17.2223 19.4995 17.083 19.6388 16.9696 19.7982C16.8417 19.9781 16.7595 20.192 16.595 20.6197L15.5834 23.2498L14.5718 20.6197C14.4072 20.192 14.325 19.9781 14.1971 19.7982C14.0837 19.6388 13.9444 19.4995 13.785 19.3861C13.6051 19.2582 13.3912 19.1759 12.9635 19.0114L10.3334 17.9998L12.9635 16.9882C13.3912 16.8237 13.6051 16.7415 13.785 16.6136C13.9444 16.5002 14.0837 16.3609 14.1971 16.2015C14.325 16.0216 14.4072 15.8077 14.5717 15.38L15.5834 12.7498Z" fill="white"/>
<path d="M10.625 23.8332V20.9165M10.625 15.0832V12.1665M9.16669 13.6248H12.0834M9.16669 22.3748H12.0834M15.5834 12.7498L14.5717 15.38C14.4072 15.8077 14.325 16.0216 14.1971 16.2015C14.0837 16.3609 13.9444 16.5002 13.785 16.6136C13.6051 16.7415 13.3912 16.8237 12.9635 16.9882L10.3334 17.9998L12.9635 19.0114C13.3912 19.1759 13.6051 19.2582 13.785 19.3861C13.9444 19.4995 14.0837 19.6388 14.1971 19.7982C14.325 19.9781 14.4072 20.192 14.5718 20.6197L15.5834 23.2498L16.595 20.6197C16.7595 20.192 16.8417 19.9781 16.9696 19.7982C17.083 19.6388 17.2223 19.4995 17.3817 19.3861C17.5616 19.2582 17.7755 19.1759 18.2032 19.0114L20.8334 17.9998L18.2032 16.9882C17.7755 16.8237 17.5616 16.7415 17.3817 16.6136C17.2223 16.5002 17.083 16.3609 16.9696 16.2015C16.8417 16.0216 16.7595 15.8077 16.595 15.38L15.5834 12.7498Z" stroke="white" stroke-width="1.16667" stroke-linecap="round" stroke-linejoin="round"/>
<path d="M32.0515 15.3105C31.9995 15.4015 31.9432 15.4687 31.8825 15.512C31.8262 15.551 31.7547 15.5705 31.668 15.5705C31.577 15.5705 31.4773 15.538 31.369 15.473C31.265 15.4037 31.1393 15.3278 30.992 15.2455C30.8447 15.1632 30.6713 15.0895 30.472 15.0245C30.277 14.9552 30.0452 14.9205 29.7765 14.9205C29.5338 14.9205 29.3215 14.9508 29.1395 15.0115C28.9575 15.0678 28.8037 15.148 28.678 15.252C28.5567 15.356 28.4657 15.4817 28.405 15.629C28.3443 15.772 28.314 15.9302 28.314 16.1035C28.314 16.3245 28.3747 16.5087 28.496 16.656C28.6217 16.8033 28.7863 16.929 28.99 17.033C29.1937 17.137 29.4255 17.2302 29.6855 17.3125C29.9455 17.3948 30.212 17.4837 30.485 17.579C30.758 17.67 31.0245 17.7783 31.2845 17.904C31.5445 18.0253 31.7763 18.1813 31.98 18.372C32.1837 18.5583 32.3462 18.788 32.4675 19.061C32.5932 19.334 32.656 19.6655 32.656 20.0555C32.656 20.4802 32.5823 20.8788 32.435 21.2515C32.292 21.6198 32.0797 21.9427 31.798 22.22C31.5207 22.493 31.1805 22.7097 30.7775 22.87C30.3745 23.026 29.913 23.104 29.393 23.104C29.094 23.104 28.7993 23.0737 28.509 23.013C28.2187 22.9567 27.9392 22.8743 27.6705 22.766C27.4062 22.6577 27.157 22.5277 26.923 22.376C26.689 22.2243 26.481 22.0553 26.299 21.869L26.8125 21.0305C26.8558 20.9698 26.9122 20.92 26.9815 20.881C27.0508 20.8377 27.1245 20.816 27.2025 20.816C27.3108 20.816 27.4278 20.8615 27.5535 20.9525C27.6792 21.0392 27.8287 21.1367 28.002 21.245C28.1753 21.3533 28.3768 21.453 28.6065 21.544C28.8405 21.6307 29.12 21.674 29.445 21.674C29.9433 21.674 30.329 21.557 30.602 21.323C30.875 21.0847 31.0115 20.7445 31.0115 20.3025C31.0115 20.0555 30.9487 19.854 30.823 19.698C30.7017 19.542 30.5392 19.412 30.3355 19.308C30.1318 19.1997 29.9 19.1087 29.64 19.035C29.38 18.9613 29.1157 18.8812 28.847 18.7945C28.5783 18.7078 28.314 18.6038 28.054 18.4825C27.794 18.3612 27.5622 18.203 27.3585 18.008C27.1548 17.813 26.9902 17.5703 26.8645 17.28C26.7432 16.9853 26.6825 16.6235 26.6825 16.1945C26.6825 15.8522 26.7497 15.5185 26.884 15.1935C27.0227 14.8685 27.222 14.5803 27.482 14.329C27.742 14.0777 28.0627 13.8762 28.444 13.7245C28.8253 13.5728 29.263 13.497 29.757 13.497C30.3117 13.497 30.823 13.5837 31.291 13.757C31.759 13.9303 32.1577 14.173 32.487 14.485L32.0515 15.3105ZM35.8588 23.104C35.2781 23.104 34.8318 22.9415 34.5198 22.6165C34.2121 22.2872 34.0583 21.8343 34.0583 21.258V17.5335H33.3758C33.2891 17.5335 33.2154 17.5053 33.1548 17.449C33.0941 17.3927 33.0638 17.3082 33.0638 17.1955V16.5585L34.1363 16.383L34.4743 14.563C34.4959 14.4763 34.5371 14.4092 34.5978 14.3615C34.6584 14.3138 34.7364 14.29 34.8318 14.29H35.6638V16.3895H37.4448V17.5335H35.6638V21.1475C35.6638 21.3555 35.7136 21.518 35.8133 21.635C35.9173 21.752 36.0581 21.8105 36.2358 21.8105C36.3354 21.8105 36.4178 21.7997 36.4828 21.778C36.5521 21.752 36.6106 21.726 36.6583 21.7C36.7103 21.674 36.7558 21.6502 36.7948 21.6285C36.8338 21.6025 36.8728 21.5895 36.9118 21.5895C36.9594 21.5895 36.9984 21.6025 37.0288 21.6285C37.0591 21.6502 37.0916 21.6848 37.1263 21.7325L37.6073 22.5125C37.3733 22.7075 37.1046 22.8548 36.8013 22.9545C36.4979 23.0542 36.1838 23.104 35.8588 23.104ZM41.9957 20.153C41.532 20.1747 41.142 20.2158 40.8257 20.2765C40.5094 20.3328 40.2559 20.4065 40.0652 20.4975C39.8745 20.5885 39.738 20.6947 39.6557 20.816C39.5734 20.9373 39.5322 21.0695 39.5322 21.2125C39.5322 21.4942 39.6145 21.6957 39.7792 21.817C39.9482 21.9383 40.167 21.999 40.4357 21.999C40.765 21.999 41.0489 21.9405 41.2872 21.8235C41.5299 21.7022 41.766 21.5202 41.9957 21.2775V20.153ZM38.3167 17.2605C39.0837 16.5585 40.0067 16.2075 41.0857 16.2075C41.4757 16.2075 41.8245 16.2725 42.1322 16.4025C42.4399 16.5282 42.6999 16.7058 42.9122 16.9355C43.1245 17.1608 43.2849 17.4317 43.3932 17.748C43.5059 18.0643 43.5622 18.411 43.5622 18.788V23H42.8342C42.6825 23 42.5655 22.9783 42.4832 22.935C42.4009 22.8873 42.3359 22.7942 42.2882 22.6555L42.1452 22.1745C41.9762 22.3262 41.8115 22.4605 41.6512 22.5775C41.4909 22.6902 41.324 22.7855 41.1507 22.8635C40.9774 22.9415 40.791 23 40.5917 23.039C40.3967 23.0823 40.18 23.104 39.9417 23.104C39.66 23.104 39.4 23.0672 39.1617 22.9935C38.9234 22.9155 38.7175 22.8007 38.5442 22.649C38.3709 22.4973 38.2365 22.3088 38.1412 22.0835C38.0459 21.8582 37.9982 21.596 37.9982 21.297C37.9982 21.128 38.0264 20.9612 38.0827 20.7965C38.139 20.6275 38.23 20.4672 38.3557 20.3155C38.4857 20.1638 38.6525 20.0208 38.8562 19.8865C39.0599 19.7522 39.309 19.6352 39.6037 19.5355C39.9027 19.4358 40.2494 19.3557 40.6437 19.295C41.038 19.23 41.4887 19.191 41.9957 19.178V18.788C41.9957 18.3417 41.9004 18.0123 41.7097 17.8C41.519 17.5833 41.2439 17.475 40.8842 17.475C40.6242 17.475 40.4075 17.5053 40.2342 17.566C40.0652 17.6267 39.9157 17.696 39.7857 17.774C39.6557 17.8477 39.5365 17.9148 39.4282 17.9755C39.3242 18.0362 39.2072 18.0665 39.0772 18.0665C38.9645 18.0665 38.8692 18.0383 38.7912 17.982C38.7132 17.9213 38.6504 17.852 38.6027 17.774L38.3167 17.2605ZM46.5888 17.488C46.7968 17.0893 47.0438 16.7773 47.3298 16.552C47.6158 16.3223 47.9538 16.2075 48.3438 16.2075C48.6514 16.2075 48.8984 16.2747 49.0848 16.409L48.9808 17.6115C48.9591 17.6895 48.9266 17.7458 48.8833 17.7805C48.8443 17.8108 48.7901 17.826 48.7208 17.826C48.6558 17.826 48.5583 17.8152 48.4283 17.7935C48.3026 17.7718 48.1791 17.761 48.0578 17.761C47.8801 17.761 47.7219 17.787 47.5833 17.839C47.4446 17.891 47.3189 17.9668 47.2063 18.0665C47.0979 18.1618 47.0004 18.2788 46.9138 18.4175C46.8314 18.5562 46.7534 18.7143 46.6798 18.892V23H45.0743V16.331H46.0168C46.1814 16.331 46.2963 16.3613 46.3613 16.422C46.4263 16.4783 46.4696 16.5823 46.4913 16.734L46.5888 17.488ZM52.1469 23.104C51.5662 23.104 51.1199 22.9415 50.8079 22.6165C50.5002 22.2872 50.3464 21.8343 50.3464 21.258V17.5335H49.6639C49.5772 17.5335 49.5035 17.5053 49.4429 17.449C49.3822 17.3927 49.3519 17.3082 49.3519 17.1955V16.5585L50.4244 16.383L50.7624 14.563C50.784 14.4763 50.8252 14.4092 50.8859 14.3615C50.9465 14.3138 51.0245 14.29 51.1199 14.29H51.9519V16.3895H53.7329V17.5335H51.9519V21.1475C51.9519 21.3555 52.0017 21.518 52.1014 21.635C52.2054 21.752 52.3462 21.8105 52.5239 21.8105C52.6235 21.8105 52.7059 21.7997 52.7709 21.778C52.8402 21.752 52.8987 21.726 52.9464 21.7C52.9984 21.674 53.0439 21.6502 53.0829 21.6285C53.1219 21.6025 53.1609 21.5895 53.1999 21.5895C53.2475 21.5895 53.2865 21.6025 53.3169 21.6285C53.3472 21.6502 53.3797 21.6848 53.4144 21.7325L53.8954 22.5125C53.6614 22.7075 53.3927 22.8548 53.0894 22.9545C52.786 23.0542 52.4719 23.104 52.1469 23.104Z" fill="white"/>
</svg>
